<svg width="35" height="35" viewBox="0 0 35 35" fill="none" xmlns="http://www.w3.org/2000/svg">
<path d="M17.0391 15.0941C17.0391 15.7044 17.1696 16.3099 17.3108 16.8414L17.6716 18.2316L34.4418 13.8245C33.8911 11.2507 32.7803 8.88832 31.2423 6.87109L20.9435 9.59059C18.7385 10.2797 17.0402 12.543 17.0402 15.0953L17.0391 15.0941Z" fill="#E40521"/>
<path d="M19.0996 23.7982L21.8695 34.4755C28.6555 32.6745 33.8155 26.8557 34.6949 19.7004L19.0996 23.7994V23.7982Z" fill="#E40521"/>
<path d="M11.3467 16.6442C11.0797 15.6266 10.8494 14.5505 10.8494 13.4123C10.8494 9.07692 13.8116 5.45093 17.8062 4.43694L26.0127 2.28714C23.4754 0.833643 20.5441 0 17.417 0C7.79824 0 0 7.84795 0 17.528C0 27.2081 7.09568 34.3215 16.0973 35.0011L11.6529 17.8206C11.5603 17.436 11.4511 17.0383 11.3455 16.6442H11.3467Z" fill="#E40521"/>
</svg>
