<svg version="1.1" id="Layer_1" xmlns="http://www.w3.org/2000/svg" xmlns:xlink="http://www.w3.org/1999/xlink" x="0px" y="0px"
	 width="100%" viewBox="0 0 500 500" enable-background="new 0 0 500 500" xml:space="preserve">
<path fill="#03B0BD" opacity="1.000000" stroke="none" 
	d="
M273.000000,501.000000 
	C258.645782,501.000000 244.291550,501.000000 229.207397,500.675476 
	C221.260437,499.511017 213.967087,499.082428 206.839706,497.759552 
	C177.029694,492.226624 148.960159,481.969208 122.831360,466.434448 
	C98.390762,451.903351 77.040474,433.718323 58.755352,412.055328 
	C43.333206,393.784180 30.931307,373.488678 21.327915,351.572083 
	C13.012329,332.594421 7.169000,312.850922 3.980050,292.351379 
	C2.976847,285.902466 1.992807,279.450531 0.999999,273.000000 
	C1.000000,258.645782 1.000000,244.291550 1.324519,229.207336 
	C2.488966,221.260513 2.918163,213.967438 4.240391,206.840057 
	C9.770650,177.029556 20.035410,148.963211 35.564407,122.832802 
	C50.089890,98.390999 68.292381,77.066788 89.934837,58.758553 
	C108.198326,43.308727 128.550583,30.996099 150.429443,21.340675 
	C169.385681,12.975040 189.149246,7.172079 209.649475,3.980151 
	C216.097992,2.976104 222.549728,1.992799 229.000000,1.000000 
	C243.354233,1.000000 257.708466,1.000000 272.792603,1.324562 
	C280.739471,2.489001 288.030334,2.927052 295.160492,4.238766 
	C324.992340,9.726865 353.034180,20.090004 379.175262,35.578705 
	C403.635193,50.071346 424.986084,68.269951 443.243164,89.953964 
	C458.636780,108.237068 471.116211,128.484711 480.681885,150.429413 
	C488.961060,169.422821 494.832733,189.153656 498.020386,209.653290 
	C499.022949,216.100739 500.007324,222.551010 501.000000,229.000000 
	C501.000000,243.354233 501.000000,257.708466 500.675446,272.792603 
	C499.510956,280.739594 499.090729,288.035095 497.757996,295.159973 
	C492.184875,324.953949 482.021851,353.052124 466.443298,379.172119 
	C451.878876,403.591644 433.716492,424.947052 412.057648,443.238281 
	C393.786469,458.668610 373.483154,471.065979 351.578949,480.680756 
	C332.609863,489.007141 312.853424,494.836517 292.351135,498.019958 
	C285.902008,499.021301 279.450439,500.007080 273.000000,501.000000 
M253.159378,492.432373 
	C263.548889,491.631409 273.970795,491.121521 284.321381,489.970703 
	C308.009979,487.336792 330.598053,480.460846 352.068848,470.341278 
	C382.180450,456.149139 408.631592,436.914886 430.811890,411.826447 
	C448.171478,392.190735 462.375671,370.654602 472.724976,346.603882 
	C486.627045,314.296814 493.749237,280.618622 491.904816,245.370834 
	C491.189392,231.699051 490.176422,217.939346 487.819305,204.478806 
	C483.102112,177.540756 473.241791,152.319946 459.224640,128.827881 
	C444.515747,104.176514 426.294220,82.520630 403.935577,64.337326 
	C385.050079,48.978554 364.586273,36.250072 342.043976,27.217587 
	C310.914185,14.744169 278.558472,8.188574 244.849655,10.052077 
	C233.639145,10.671821 222.393875,11.459810 211.289383,13.045434 
	C181.961060,17.233255 154.644348,27.490862 129.232834,42.520554 
	C102.787636,58.161617 79.955994,78.002975 60.947559,102.349731 
	C40.173939,128.957413 25.540855,158.454086 17.029463,191.023239 
	C11.063981,213.850372 8.366550,237.121155 10.141178,260.658386 
	C11.267838,275.601501 12.862579,290.625427 15.856155,305.284607 
	C20.441885,327.740417 29.004595,348.868530 40.349773,368.882721 
	C50.858902,387.421997 63.372234,404.444061 78.281364,419.584778 
	C85.927559,427.349731 94.359543,434.401154 102.852219,441.260162 
	C121.910011,456.651978 143.094391,468.398956 165.994507,477.117096 
	C193.815155,487.708527 222.728912,492.129120 253.159378,492.432373 
z"/>
<path fill="#47704C" opacity="1.000000" stroke="none" 
	d="
M228.531342,1.000000 
	C222.549728,1.992799 216.097992,2.976104 209.649475,3.980151 
	C189.149246,7.172079 169.385681,12.975040 150.429443,21.340675 
	C128.550583,30.996099 108.198326,43.308727 89.934837,58.758553 
	C68.292381,77.066788 50.089890,98.390999 35.564407,122.832802 
	C20.035410,148.963211 9.770650,177.029556 4.240391,206.840057 
	C2.918163,213.967438 2.488966,221.260513 1.324519,228.738678 
	C1.000000,153.072952 1.000000,77.145912 1.000000,1.000000 
	C76.687424,1.000000 152.375046,1.000000 228.531342,1.000000 
z"/>
<path fill="#47704C" opacity="1.000000" stroke="none" 
	d="
M501.000000,228.531342 
	C500.007324,222.551010 499.022949,216.100739 498.020386,209.653290 
	C494.832733,189.153656 488.961060,169.422821 480.681885,150.429413 
	C471.116211,128.484711 458.636780,108.237068 443.243164,89.953964 
	C424.986084,68.269951 403.635193,50.071346 379.175262,35.578705 
	C353.034180,20.090004 324.992340,9.726865 295.160492,4.238766 
	C288.030334,2.927052 280.739471,2.489001 273.261261,1.324562 
	C348.927032,1.000000 424.854065,1.000000 501.000000,1.000000 
	C501.000000,76.687424 501.000000,152.375046 501.000000,228.531342 
z"/>
<path fill="#47704C" opacity="1.000000" stroke="none" 
	d="
M0.999999,273.468658 
	C1.992807,279.450531 2.976847,285.902466 3.980050,292.351379 
	C7.169000,312.850922 13.012329,332.594421 21.327915,351.572083 
	C30.931307,373.488678 43.333206,393.784180 58.755352,412.055328 
	C77.040474,433.718323 98.390762,451.903351 122.831360,466.434448 
	C148.960159,481.969208 177.029694,492.226624 206.839706,497.759552 
	C213.967087,499.082428 221.260437,499.511017 228.738739,500.675476 
	C153.072968,501.000000 77.145927,501.000000 1.000000,501.000000 
	C1.000000,425.312592 1.000000,349.624939 0.999999,273.468658 
z"/>
<path fill="#47704C" opacity="1.000000" stroke="none" 
	d="
M273.468658,501.000000 
	C279.450439,500.007080 285.902008,499.021301 292.351135,498.019958 
	C312.853424,494.836517 332.609863,489.007141 351.578949,480.680756 
	C373.483154,471.065979 393.786469,458.668610 412.057648,443.238281 
	C433.716492,424.947052 451.878876,403.591644 466.443298,379.172119 
	C482.021851,353.052124 492.184875,324.953949 497.757996,295.159973 
	C499.090729,288.035095 499.510956,280.739594 500.675446,273.261292 
	C501.000000,348.927032 501.000000,424.854065 501.000000,501.000000 
	C425.312592,501.000000 349.624939,501.000000 273.468658,501.000000 
z"/>
<path fill="#47704C" opacity="1.000000" stroke="none" 
	d="
M252.748138,492.618347 
	C222.728912,492.129120 193.815155,487.708527 165.994507,477.117096 
	C143.094391,468.398956 121.910011,456.651978 102.852219,441.260162 
	C94.359543,434.401154 85.927559,427.349731 78.281364,419.584778 
	C63.372234,404.444061 50.858902,387.421997 40.349773,368.882721 
	C29.004595,348.868530 20.441885,327.740417 15.856155,305.284607 
	C12.862579,290.625427 11.267838,275.601501 10.141178,260.658386 
	C8.366550,237.121155 11.063981,213.850372 17.029463,191.023239 
	C25.540855,158.454086 40.173939,128.957413 60.947559,102.349731 
	C79.955994,78.002975 102.787636,58.161617 129.232834,42.520554 
	C154.644348,27.490862 181.961060,17.233255 211.289383,13.045434 
	C222.393875,11.459810 233.639145,10.671821 244.849655,10.052077 
	C278.558472,8.188574 310.914185,14.744169 342.043976,27.217587 
	C364.586273,36.250072 385.050079,48.978554 403.935577,64.337326 
	C426.294220,82.520630 444.515747,104.176514 459.224640,128.827881 
	C473.241791,152.319946 483.102112,177.540756 487.819305,204.478806 
	C490.176422,217.939346 491.189392,231.699051 491.904816,245.370834 
	C493.749237,280.618622 486.627045,314.296814 472.724976,346.603882 
	C462.375671,370.654602 448.171478,392.190735 430.811890,411.826447 
	C408.631592,436.914886 382.180450,456.149139 352.068848,470.341278 
	C330.598053,480.460846 308.009979,487.336792 284.321381,489.970703 
	C273.970795,491.121521 263.548889,491.631409 252.748138,492.618347 
M87.993584,257.522552 
	C87.994080,261.519287 88.129791,265.521942 87.954643,269.510956 
	C87.798958,273.056641 88.807030,276.561432 92.396065,276.625763 
	C95.965477,276.689697 97.072937,273.292023 97.018074,269.699463 
	C96.880768,260.708954 96.875824,251.712143 97.084229,242.724045 
	C97.130768,240.717026 97.763596,238.309982 99.007591,236.825409 
	C102.169617,233.051880 109.708382,232.216080 115.157227,234.547363 
	C119.912155,236.581757 119.997787,240.805847 120.007233,245.038071 
	C120.026550,253.697693 119.713661,262.377380 120.266304,271.002136 
	C120.395180,273.013550 123.184967,276.023529 125.200958,276.451385 
	C127.767258,276.996063 129.111832,274.394745 129.057220,271.375427 
	C128.882568,261.719727 129.086823,252.056763 128.885498,242.402023 
	C128.714722,234.213898 124.359962,229.058807 116.656502,227.061234 
	C108.165047,224.859329 100.323296,225.806702 93.580940,231.505234 
	C85.521072,225.941956 77.165634,224.102600 68.156372,228.225784 
	C66.167915,229.135834 64.940628,229.278839 62.973804,227.903458 
	C59.730206,225.635300 57.074089,227.142044 57.042694,231.085724 
	C56.932671,244.907059 56.917610,258.730377 57.071918,272.550659 
	C57.086910,273.893524 58.267181,275.972382 59.368332,276.345032 
	C60.485920,276.723236 62.669804,275.793579 63.488617,274.739227 
	C64.483711,273.457916 64.911629,271.453003 64.938667,269.750824 
	C65.073502,261.259888 64.771767,252.758026 65.056084,244.274506 
	C65.346809,235.599930 69.989586,232.943146 76.714355,233.274261 
	C85.030640,233.683777 87.465599,236.307922 87.680908,244.102783 
	C87.795387,248.247330 87.889992,252.392426 87.993584,257.522552 
M218.994034,224.125381 
	C218.994034,225.754639 218.994034,227.383896 218.994034,229.367889 
	C215.566452,228.260040 212.688019,226.960968 209.674225,226.429367 
	C202.543243,225.171539 195.046051,225.817276 190.527512,231.593689 
	C182.465439,241.900162 181.909790,253.830566 187.017731,265.799652 
	C190.610458,274.218231 199.490875,278.187744 210.834045,276.973724 
	C218.520340,276.151001 226.199707,270.368835 226.673920,262.240234 
	C227.783524,243.220444 227.644836,224.122192 227.647888,205.055649 
	C227.648102,203.717850 224.594086,201.262344 223.094421,201.361206 
	C221.645004,201.456711 219.344589,204.096954 219.202667,205.770737 
	C218.712585,211.550156 219.001663,217.395660 218.994034,224.125381 
M375.983368,250.673050 
	C375.618256,262.768097 382.416290,269.844635 392.538818,274.862457 
	C396.014496,276.585388 396.893158,275.187531 397.081329,272.186890 
	C398.781158,272.186890 400.236908,272.186890 402.460510,272.186890 
	C400.721771,273.044647 399.596161,273.599976 397.827698,274.472382 
	C400.131958,275.735352 400.805267,276.264343 401.565796,276.468536 
	C402.132050,276.620544 402.822632,276.402466 403.438385,276.263275 
	C413.571167,273.972931 421.312469,268.308411 423.986572,258.222076 
	C425.001038,254.395569 424.325867,249.306152 423.949188,245.324722 
	C423.364685,239.146622 418.581909,233.486862 412.507446,229.968292 
	C407.252472,226.924393 400.770966,227.118073 397.182312,230.618774 
	C393.342804,227.338531 393.076752,227.354507 388.692841,230.101913 
	C381.373627,234.688873 377.035065,241.170883 375.983368,250.673050 
M304.973724,239.293915 
	C306.870789,239.320190 309.805389,240.138550 310.491272,239.240143 
	C314.095764,234.518845 318.845764,233.785202 324.192291,233.987488 
	C331.043823,234.246704 334.476013,238.382690 333.363525,245.994415 
	C330.344879,245.994415 327.220276,245.865829 324.111053,246.029587 
	C320.825775,246.202621 317.552124,246.626785 314.278809,246.989944 
	C307.686432,247.721313 302.143738,252.616531 301.112000,258.576691 
	C299.943146,265.329132 302.720245,271.015320 308.747803,274.348480 
	C317.369751,279.116333 325.544586,277.745819 332.565704,273.098450 
	C334.836151,274.511902 336.626617,275.626526 338.417053,276.741150 
	C339.611145,274.744843 341.755554,272.786194 341.836395,270.745758 
	C342.204803,261.448029 342.425293,252.099411 341.827301,242.825287 
	C341.470459,237.291138 339.829559,231.505737 334.124420,228.714203 
	C326.031860,224.754456 317.666901,225.018005 309.848114,229.273224 
	C306.575073,231.054504 302.783234,233.630005 304.973724,239.293915 
M137.390686,240.281769 
	C136.937042,245.048248 136.016769,249.826874 136.140244,254.578354 
	C136.320847,261.528717 138.301926,268.151642 144.215714,272.476959 
	C153.268768,279.098358 166.487732,278.726105 175.228882,271.767090 
	C176.425110,270.814758 177.634720,268.147461 177.125519,267.138123 
	C175.995407,264.898041 173.999481,264.148621 170.946793,265.417755 
	C166.668228,267.196503 161.920624,268.763092 157.371033,268.770325 
	C149.522934,268.782837 144.607925,262.147064 145.772446,254.002243 
	C154.820221,254.002243 163.946640,253.897568 173.068192,254.062393 
	C176.023621,254.115784 178.214584,253.124649 178.647110,250.347916 
	C179.759521,243.206512 178.839066,236.268311 173.363602,231.050919 
	C165.454895,223.515045 143.323181,222.925476 137.390686,240.281769 
M291.577942,273.140930 
	C292.148590,272.813904 292.799957,272.575836 293.275635,272.144135 
	C295.147400,270.445496 297.354584,268.606049 295.149597,265.900330 
	C293.197601,263.505066 290.918945,264.254974 288.584290,265.837494 
	C286.841980,267.018524 284.836945,267.967834 282.813629,268.551270 
	C274.195435,271.036530 267.217896,267.557922 265.400879,259.692444 
	C264.021271,253.720428 264.180695,247.697723 265.918610,241.718155 
	C267.282318,237.026169 270.194946,234.590027 275.020386,233.902466 
	C280.395538,233.136566 285.168823,233.823029 288.794098,238.252243 
	C290.805908,240.710220 293.266907,240.231781 294.657776,238.287247 
	C295.460632,237.164810 295.097076,233.800705 294.071259,233.033981 
	C290.593170,230.434418 286.810822,227.414215 282.736694,226.602402 
	C272.466522,224.556046 261.104523,227.305954 257.839935,238.294464 
	C255.804947,245.144211 256.605225,252.948746 256.835266,260.302856 
	C256.925598,263.191589 258.386658,266.426636 260.161499,268.803589 
	C266.582886,277.403259 279.328766,280.243164 291.577942,273.140930 
M371.953613,233.901810 
	C372.274841,232.523407 373.123352,230.073883 372.835785,229.932327 
	C369.973541,228.523392 366.923737,227.495468 362.988342,226.004242 
	C362.988342,224.270645 363.439423,221.043106 362.820618,218.035706 
	C362.444275,216.206711 360.416840,214.717468 359.131073,213.075607 
	C357.768982,214.668396 355.683502,216.075974 355.216980,217.898041 
	C354.543640,220.528229 355.044769,223.459106 355.044769,226.261688 
	C354.655365,226.031235 354.265930,225.800766 353.876526,225.570312 
	C351.944733,227.437515 350.012909,229.304733 348.081116,231.171951 
	C350.082672,232.940369 352.084229,234.708771 355.000061,237.284973 
	C355.000061,244.537552 354.930420,253.167725 355.020508,261.796234 
	C355.103210,269.721893 358.622284,274.115601 365.738068,276.444611 
	C369.170624,277.568115 371.671173,276.245819 372.667145,273.651672 
	C373.869690,270.519714 371.188416,268.576843 368.387634,268.383759 
	C364.665405,268.127106 363.267914,265.866028 363.192352,262.949066 
	C362.956787,253.854218 363.105988,244.749435 363.105988,235.607117 
	C366.142883,235.102142 368.696472,234.677551 371.953613,233.901810 
M445.712921,227.971909 
	C443.947418,228.757828 442.181885,229.543747 440.416382,230.329651 
	C438.704895,228.499268 436.349304,226.848862 434.682281,227.376022 
	C433.352325,227.796600 432.147766,230.858643 432.114105,232.769791 
	C431.891083,245.429749 432.080566,258.096405 431.941345,270.758759 
	C431.907318,273.854279 432.763123,276.474243 435.852051,276.583191 
	C439.439178,276.709717 440.105377,273.816956 440.041565,270.615662 
	C439.902100,263.620056 439.830139,256.614349 440.045197,249.622467 
	C440.340179,240.030838 444.169159,234.355728 453.506470,234.006058 
	C456.462433,233.895386 457.630127,232.028152 456.806427,229.763351 
	C456.248993,228.230637 454.199829,226.488632 452.620728,226.271088 
	C450.678680,226.003555 448.531525,227.225021 445.712921,227.971909 
M241.870712,276.354919 
	C246.911270,276.779236 247.939423,273.446289 247.967590,269.540100 
	C248.053802,257.586182 248.005157,245.631241 247.989807,233.676727 
	C247.988525,232.687561 247.997070,231.655472 247.735001,230.717667 
	C246.965012,227.962280 245.061005,226.114090 242.283096,227.223389 
	C240.842209,227.798767 239.194839,230.081711 239.166687,231.621140 
	C238.923691,244.899490 238.959732,258.185028 239.124222,271.465820 
	C239.143036,272.985565 240.460617,274.489227 241.870712,276.354919 
M103.962677,201.809021 
	C98.941399,195.994934 94.752708,194.875534 88.730003,197.738144 
	C81.350853,201.245499 78.681038,210.526367 83.306061,216.592896 
	C86.336838,220.568253 95.386871,222.375732 99.480377,219.823227 
	C106.119514,215.683380 107.802513,209.438705 103.962677,201.809021 
M173.092834,196.089279 
	C168.428040,196.060760 163.754395,195.841812 159.100998,196.058304 
	C154.618683,196.266861 151.847916,199.839035 151.974380,204.332520 
	C152.110596,209.171600 154.708191,210.522781 159.120102,210.049133 
	C161.590271,209.783920 164.260361,209.515335 166.564362,210.190369 
	C168.243973,210.682495 170.488678,212.586823 170.676743,214.087723 
	C171.002396,216.686630 168.604385,217.144348 166.206833,217.043198 
	C162.380981,216.881805 158.522125,216.770981 154.721573,217.120758 
	C153.299942,217.251587 152.002533,218.732132 150.648483,219.597260 
	C150.923538,220.064133 151.198593,220.530991 151.473648,220.997864 
	C156.788635,220.997864 162.103836,221.028275 167.418503,220.987762 
	C171.308533,220.958115 173.447098,218.875366 173.990387,215.086914 
	C174.526443,211.348770 173.698822,208.481857 169.306915,207.993591 
	C166.229507,207.651474 163.145996,207.045929 160.072205,207.086655 
	C157.439941,207.121536 155.213806,206.676224 155.143768,203.831085 
	C155.065674,200.658417 157.487411,199.906693 160.310699,199.977631 
	C163.974411,200.069687 167.648590,199.865219 171.306198,200.040421 
	C174.126511,200.175507 174.246063,198.677567 173.092834,196.089279 
M120.038330,201.226273 
	C122.131065,203.857117 124.223793,206.487961 126.090782,208.834991 
	C122.669434,212.909897 119.660103,216.494064 116.650780,220.078232 
	C123.940239,220.835373 124.435570,213.964417 129.070984,211.416916 
	C130.361740,213.033905 131.735397,215.353577 133.676224,217.007858 
	C135.413605,218.488693 135.931122,222.753204 140.178543,220.244080 
	C137.160599,216.220932 134.202713,212.277878 131.401382,208.543503 
	C134.523254,204.566483 137.508209,200.763916 140.968933,196.355255 
	C139.086456,196.145615 138.391159,195.862823 138.170883,196.074448 
	C134.890991,199.225555 131.673950,202.442062 128.464417,205.620987 
	C124.188988,203.383438 123.970634,195.878098 116.495354,197.228638 
	C117.624580,198.314056 118.753815,199.399475 120.038330,201.226273 
M70.400856,220.039948 
	C69.489067,219.027145 68.719002,217.341782 67.641632,217.114746 
	C62.174599,215.962708 60.062317,213.697769 60.004665,208.140030 
	C59.977810,205.551392 60.000076,202.962250 60.000076,199.999741 
	C61.775940,199.999741 64.082336,200.034378 66.387299,199.991623 
	C69.845787,199.927490 69.845360,199.904404 69.362610,196.001251 
	C66.112595,196.001251 62.823074,196.001251 59.605640,196.001251 
	C59.472744,193.355270 61.619923,190.274124 57.000034,188.492722 
	C57.000034,196.037811 56.985607,202.823898 57.003983,209.609879 
	C57.023376,216.772964 62.463665,221.428864 70.400856,220.039948 
M358.709930,297.219238 
	C360.832794,297.794067 363.069031,299.033020 365.036499,298.697266 
	C366.237457,298.492310 367.576904,295.962982 367.872040,294.303009 
	C368.343628,291.650482 367.998230,288.852722 367.998230,286.212769 
	C355.535004,284.773224 356.288513,290.156372 358.709930,297.219238 
M234.000000,292.315125 
	C234.000000,290.248993 234.000000,288.182892 234.000000,286.111084 
	C229.032974,285.942688 223.953400,284.920288 223.216034,290.876404 
	C222.844925,293.874054 222.244904,298.508148 227.700272,299.004517 
	C231.947495,299.390991 234.445511,297.923523 234.000000,292.315125 
M284.280151,285.784424 
	C284.213867,286.325836 284.233612,286.895691 284.065613,287.403473 
	C283.492371,289.136383 281.851898,291.733612 282.435455,292.392914 
	C283.909180,294.057922 286.269745,295.165436 288.474823,295.876068 
	C289.956818,296.353607 291.779846,295.772858 293.714813,295.648621 
	C293.066345,291.464508 292.421875,287.306030 291.591156,281.945770 
	C288.732208,283.124908 286.400726,284.086517 284.280151,285.784424 
M191.995102,293.944183 
	C191.995102,290.347229 191.995102,286.750275 191.995102,282.227295 
	C189.094635,283.779633 186.821152,284.642273 184.992477,286.073303 
	C183.110718,287.545868 180.971863,289.362671 180.336731,291.451813 
	C180.049393,292.396942 182.918945,295.201630 184.733124,295.655090 
	C186.935593,296.205597 189.536026,295.164001 191.995102,293.944183 
M352.292328,295.915009 
	C352.292328,292.697784 352.292328,289.480591 352.292328,286.015289 
	C350.283142,286.015289 347.738098,285.423859 345.704224,286.189728 
	C343.851532,286.887451 341.946838,288.832092 341.260986,290.672729 
	C340.905518,291.626678 342.838989,294.242889 344.276886,294.866608 
	C346.447235,295.808105 349.088654,295.663574 352.292328,295.915009 
M429.985107,287.713745 
	C427.206055,284.436157 423.847626,285.661072 421.032593,287.184998 
	C419.839020,287.831146 418.762421,290.720001 419.220917,292.036377 
	C421.087616,297.395874 425.749481,295.812531 429.997833,295.551819 
	C429.997833,293.250641 429.997833,290.934845 429.985107,287.713745 
M332.034882,290.161896 
	C332.479401,290.128876 332.923920,290.095886 333.368439,290.062866 
	C333.249939,291.971893 333.131470,293.880920 333.005493,295.910400 
	C338.353088,296.002808 337.281677,292.271393 336.817688,289.983490 
	C335.909210,285.503784 331.883362,285.315674 328.576782,286.147461 
	C322.831482,287.592621 325.457123,292.244507 325.256927,295.755005 
	C325.832733,295.923981 326.408539,296.092926 326.984344,296.261902 
	C327.514221,294.170837 328.044067,292.079803 328.573944,289.988739 
	C329.001831,291.162659 328.813110,292.338562 329.059784,293.414642 
	C329.268311,294.324280 329.981293,295.118317 330.471008,295.963501 
	C330.980011,295.137115 331.651703,294.364441 331.947815,293.467743 
	C332.195068,292.719055 332.002441,291.825104 332.034882,290.161896 
M135.491196,295.103302 
	C136.274246,295.203918 137.057312,295.304535 137.999985,295.425659 
	C137.999985,293.867920 137.999985,292.372986 137.999985,290.878021 
	C137.999985,289.292450 137.999985,287.706879 137.999985,286.157623 
	C129.527313,285.815277 127.146400,287.023621 127.879898,291.770935 
	C128.403351,295.158752 131.231110,296.729065 135.491196,295.103302 
M244.489380,286.002136 
	C241.391434,286.370361 238.102707,287.203735 239.214630,291.099274 
	C239.772369,293.053223 242.380783,295.438599 244.306656,295.680695 
	C246.010834,295.894958 249.109253,293.777985 249.717514,292.035767 
	C250.813904,288.895294 248.741913,286.608704 244.489380,286.002136 
M390.691254,286.287659 
	C388.875641,286.192993 386.986389,285.747742 385.266541,286.109039 
	C383.755859,286.426392 382.434967,287.647369 381.030243,288.469208 
	C382.387329,289.645294 383.685699,290.902100 385.132599,291.954681 
	C385.655273,292.334930 386.534119,292.225586 387.198273,292.331360 
	C385.039520,293.074738 382.976990,293.784973 380.914490,294.495178 
	C381.213715,295.325623 381.512970,296.156067 381.812225,296.986511 
	C385.149780,295.833252 388.487335,294.680023 391.824921,293.526794 
	C391.264709,292.034973 390.704529,290.543182 390.120728,288.988464 
	C390.274933,288.627716 390.613220,287.836334 390.691254,286.287659 
M121.993912,292.103058 
	C121.993912,290.150177 121.993912,288.197266 121.993912,286.244385 
	C121.619415,286.063782 121.244926,285.883179 120.870430,285.702576 
	C120.247375,286.455719 119.649773,287.231903 118.993973,287.955383 
	C118.356018,288.659210 117.658455,289.309021 116.987068,289.982574 
	C116.323944,289.299255 115.716797,288.547363 114.984146,287.949219 
	C113.966049,287.118011 112.853821,286.402069 111.781876,285.636780 
	C111.170723,286.175140 110.559563,286.713470 109.948410,287.251801 
	C111.273392,290.147644 111.884438,294.069153 114.134804,295.635529 
	C116.169426,297.051727 120.392685,296.970978 121.993912,292.103058 
M308.542145,289.039978 
	C306.911652,285.818634 304.028961,285.135315 301.213287,286.536224 
	C299.720184,287.279114 297.934509,289.974670 298.277039,291.254608 
	C298.758087,293.052246 300.846741,294.908539 302.697052,295.739685 
	C305.691254,297.084686 308.470062,294.186432 308.542145,289.039978 
M164.991226,291.382965 
	C164.456100,288.093903 162.767548,285.527405 159.241913,286.176910 
	C157.342316,286.526886 154.925629,288.356842 154.325317,290.072906 
	C153.871216,291.370941 155.477875,294.215729 156.950623,295.198669 
	C160.576202,297.618408 162.970367,295.062256 164.991226,291.382965 
M202.437698,295.989349 
	C206.346344,295.415985 207.699524,292.986694 206.932922,289.362793 
	C206.222397,286.004059 203.435349,285.392792 200.804138,286.159943 
	C199.306839,286.596466 197.609772,288.367950 197.135849,289.890900 
	C196.009308,293.510986 198.609863,295.048187 202.437698,295.989349 
M240.657059,217.853760 
	C243.886047,220.157410 246.305267,218.236710 247.381485,215.652023 
	C248.072556,213.992325 247.541611,210.838104 246.307861,209.590759 
	C244.398270,207.660172 241.473099,207.889313 239.392593,210.172012 
	C237.044312,212.748520 237.551544,215.197479 240.657059,217.853760 
M79.946327,294.573853 
	C80.345566,292.605530 81.634270,290.221161 80.950500,288.759460 
	C79.700829,286.087982 76.748146,284.598145 74.034386,286.742035 
	C72.657867,287.829498 71.448647,290.601166 71.853363,292.177643 
	C72.825584,295.964630 75.636940,297.239319 79.946327,294.573853 
M255.076859,288.711761 
	C256.899841,290.237305 258.722809,291.762817 259.994873,292.827332 
	C259.360870,293.024414 257.556671,293.585175 255.752502,294.145966 
	C255.914307,294.686493 256.076111,295.227020 256.237946,295.767548 
	C258.340363,295.767548 260.518158,296.092743 262.513397,295.630310 
	C263.510193,295.399261 264.759277,293.784729 264.862274,292.698151 
	C265.058990,290.622742 264.516876,288.477295 264.159912,285.268036 
	C261.389618,286.149048 258.451630,287.083405 255.076859,288.711761 
M57.832226,295.914948 
	C60.386028,295.258423 63.790318,295.353088 65.235283,293.717163 
	C66.480530,292.307343 65.493645,288.925964 65.493645,286.197937 
	C62.925217,286.197937 60.188194,286.197937 57.506630,286.197937 
	C55.514294,290.988495 58.475605,292.065094 60.961601,292.304352 
	C59.990665,293.093719 58.561951,294.255280 57.832226,295.914948 
M276.929596,293.824677 
	C272.356964,291.535858 274.255341,289.188171 277.306458,286.650848 
	C273.972656,287.172882 273.652557,279.906830 269.834869,283.752655 
	C269.834869,286.033112 269.479248,287.855011 269.924713,289.453705 
	C270.484161,291.461365 271.396759,293.567230 272.777130,295.055573 
	C273.352631,295.676086 275.526642,294.814087 276.929596,293.824677 
M99.000175,286.622742 
	C99.002419,293.991058 99.498100,294.703491 106.873276,296.131622 
	C104.655609,293.544250 103.164139,291.804138 101.790771,290.201813 
	C103.669853,288.894928 104.962257,287.996063 106.068718,287.226532 
	C104.316681,285.983612 103.166397,285.127350 101.972878,284.336334 
	C101.283440,283.879364 100.524254,283.527679 99.796448,283.128601 
	C99.531380,283.997345 99.266304,284.866089 99.000175,286.622742 
M88.444260,295.962860 
	C89.203789,293.881531 89.963326,291.800232 90.722862,289.718903 
	C91.016953,289.819519 91.311050,289.920105 91.605148,290.020721 
	C92.511230,287.545776 93.417320,285.070831 94.612274,281.806824 
	C86.861916,284.615814 85.895279,286.857513 88.444260,295.962860 
M373.000000,291.382751 
	C373.070770,292.827362 373.141510,294.271973 373.211609,295.703461 
	C376.971039,295.667145 376.971039,295.667145 376.415314,283.028290 
	C375.348419,283.087860 374.285645,283.147186 373.000000,283.218964 
	C373.000000,285.861694 373.000000,288.154144 373.000000,291.382751 
M399.108612,285.359039 
	C398.812256,284.579407 398.515869,283.799774 398.219482,283.020172 
	C397.377319,287.541504 395.242188,292.249573 400.132050,295.508820 
	C400.736755,295.911835 401.896759,295.481659 402.799408,295.437592 
	C402.534698,294.628754 402.468262,293.655243 401.962646,293.046478 
	C401.007935,291.897064 399.800537,290.957520 399.030090,290.239899 
	C400.687592,288.995636 401.821136,288.144684 402.954712,287.293762 
	C401.888550,286.831329 400.822388,286.368927 399.108612,285.359039 
M146.999817,292.616333 
	C147.538406,290.518738 148.077011,288.421143 148.639618,286.230042 
	C146.882477,286.230042 145.126312,286.230042 143.251495,286.230042 
	C143.251495,289.552551 143.251495,292.641693 143.251495,295.730835 
	C143.653000,296.001465 144.054489,296.272125 144.455994,296.542755 
	C145.303253,295.527374 146.150497,294.511993 146.999817,292.616333 
M435.001556,293.219543 
	C435.587799,294.122406 436.174072,295.025269 436.760315,295.928131 
	C437.171387,295.180206 437.902222,294.446808 437.936981,293.681824 
	C438.071869,290.712433 438.052917,287.730072 437.923676,284.759796 
	C437.898315,284.177795 437.127136,283.628296 436.699951,283.063782 
	C436.137085,283.659515 435.138397,284.221039 435.088531,284.856995 
	C434.895203,287.321960 435.003937,289.810638 435.001556,293.219543 
M411.301453,295.881866 
	C412.022491,292.716522 412.743530,289.551208 413.482330,286.308014 
	C412.263275,286.308014 410.753235,286.308014 408.301880,286.308014 
	C409.070160,289.819580 409.742126,292.891052 411.301453,295.881866 
z"/>
<path fill="#03AFBB" opacity="1.000000" stroke="none" 
	d="
M87.993576,257.029907 
	C87.889992,252.392426 87.795387,248.247330 87.680908,244.102783 
	C87.465599,236.307922 85.030640,233.683777 76.714355,233.274261 
	C69.989586,232.943146 65.346809,235.599930 65.056084,244.274506 
	C64.771767,252.758026 65.073502,261.259888 64.938667,269.750824 
	C64.911629,271.453003 64.483711,273.457916 63.488617,274.739227 
	C62.669804,275.793579 60.485920,276.723236 59.368332,276.345032 
	C58.267181,275.972382 57.086910,273.893524 57.071918,272.550659 
	C56.917610,258.730377 56.932671,244.907059 57.042694,231.085724 
	C57.074089,227.142044 59.730206,225.635300 62.973804,227.903458 
	C64.940628,229.278839 66.167915,229.135834 68.156372,228.225784 
	C77.165634,224.102600 85.521072,225.941956 93.580940,231.505234 
	C100.323296,225.806702 108.165047,224.859329 116.656502,227.061234 
	C124.359962,229.058807 128.714722,234.213898 128.885498,242.402023 
	C129.086823,252.056763 128.882568,261.719727 129.057220,271.375427 
	C129.111832,274.394745 127.767258,276.996063 125.200958,276.451385 
	C123.184967,276.023529 120.395180,273.013550 120.266304,271.002136 
	C119.713661,262.377380 120.026550,253.697693 120.007233,245.038071 
	C119.997787,240.805847 119.912155,236.581757 115.157227,234.547363 
	C109.708382,232.216080 102.169617,233.051880 99.007591,236.825409 
	C97.763596,238.309982 97.130768,240.717026 97.084229,242.724045 
	C96.875824,251.712143 96.880768,260.708954 97.018074,269.699463 
	C97.072937,273.292023 95.965477,276.689697 92.396065,276.625763 
	C88.807030,276.561432 87.798958,273.056641 87.954643,269.510956 
	C88.129791,265.521942 87.994080,261.519287 87.993576,257.029907 
z"/>
<path fill="#03AFBB" opacity="1.000000" stroke="none" 
	d="
M218.994049,223.670685 
	C219.001663,217.395660 218.712585,211.550156 219.202667,205.770737 
	C219.344589,204.096954 221.645004,201.456711 223.094421,201.361206 
	C224.594086,201.262344 227.648102,203.717850 227.647888,205.055649 
	C227.644836,224.122192 227.783524,243.220444 226.673920,262.240234 
	C226.199707,270.368835 218.520340,276.151001 210.834045,276.973724 
	C199.490875,278.187744 190.610458,274.218231 187.017731,265.799652 
	C181.909790,253.830566 182.465439,241.900162 190.527512,231.593689 
	C195.046051,225.817276 202.543243,225.171539 209.674225,226.429367 
	C212.688019,226.960968 215.566452,228.260040 218.994034,229.367889 
	C218.994034,227.383896 218.994034,225.754639 218.994049,223.670685 
M195.880768,238.568512 
	C192.666367,245.035690 191.970016,251.787277 193.860367,258.733704 
	C196.405792,268.087189 202.216064,270.951996 211.727005,268.248260 
	C215.839142,267.079254 217.972717,264.913940 218.181427,260.704773 
	C218.418411,255.925018 218.860016,251.151413 218.959183,246.369873 
	C219.087479,240.183029 216.690765,236.401108 211.420609,234.313797 
	C206.701385,232.444717 198.962448,233.343460 195.880768,238.568512 
z"/>
<path fill="#02A9B5" opacity="1.000000" stroke="none" 
	d="
M375.989929,250.233521 
	C377.035065,241.170883 381.373627,234.688873 388.692841,230.101913 
	C393.076752,227.354507 393.342804,227.338531 397.182312,230.618774 
	C400.770966,227.118073 407.252472,226.924393 412.507446,229.968292 
	C418.581909,233.486862 423.364685,239.146622 423.949188,245.324722 
	C424.325867,249.306152 425.001038,254.395569 423.986572,258.222076 
	C421.312469,268.308411 413.571167,273.972931 403.438385,276.263275 
	C402.822632,276.402466 402.132050,276.620544 401.565796,276.468536 
	C400.805267,276.264343 400.131958,275.735352 397.827698,274.472382 
	C399.596161,273.599976 400.721771,273.044647 402.460510,272.186890 
	C400.236908,272.186890 398.781158,272.186890 397.081329,272.186890 
	C396.893158,275.187531 396.014496,276.585388 392.538818,274.862457 
	C382.416290,269.844635 375.618256,262.768097 375.989929,250.233521 
M409.968384,257.073395 
	C412.869507,248.990555 409.997223,243.585770 401.892059,241.780151 
	C401.113495,241.606720 399.921997,241.248276 399.748901,240.709961 
	C397.954498,235.128357 395.276825,239.076462 392.601074,239.716568 
	C393.514740,241.157181 394.228058,242.281876 394.909851,243.356873 
	C388.712585,248.982239 388.826233,257.420654 394.691772,260.888306 
	C395.987061,261.654022 396.661743,263.469574 397.622192,264.801697 
	C397.268341,265.163147 396.914520,265.524567 396.560669,265.885986 
	C399.200592,265.885986 401.840515,265.885986 404.980103,265.885986 
	C402.625458,263.198792 402.752808,261.541534 406.296234,260.668579 
	C407.565613,260.355835 408.523560,258.779053 409.968384,257.073395 
M411.935974,237.458679 
	C408.661438,235.212677 405.461487,232.577805 399.409058,235.909500 
	C408.069519,238.853134 413.189270,244.047058 415.566193,251.474548 
	C417.877777,249.431046 419.202942,248.259552 420.003448,247.551895 
	C419.043793,246.690399 417.837799,245.902893 417.028412,244.819168 
	C415.391052,242.626877 413.968811,240.273895 411.935974,237.458679 
z"/>
<path fill="#03AEBB" opacity="1.000000" stroke="none" 
	d="
M304.715515,239.016022 
	C302.783234,233.630005 306.575073,231.054504 309.848114,229.273224 
	C317.666901,225.018005 326.031860,224.754456 334.124420,228.714203 
	C339.829559,231.505737 341.470459,237.291138 341.827301,242.825287 
	C342.425293,252.099411 342.204803,261.448029 341.836395,270.745758 
	C341.755554,272.786194 339.611145,274.744843 338.417053,276.741150 
	C336.626617,275.626526 334.836151,274.511902 332.565704,273.098450 
	C325.544586,277.745819 317.369751,279.116333 308.747803,274.348480 
	C302.720245,271.015320 299.943146,265.329132 301.112000,258.576691 
	C302.143738,252.616531 307.686432,247.721313 314.278809,246.989944 
	C317.552124,246.626785 320.825775,246.202621 324.111053,246.029587 
	C327.220276,245.865829 330.344879,245.994415 333.363525,245.994415 
	C334.476013,238.382690 331.043823,234.246704 324.192291,233.987488 
	C318.845764,233.785202 314.095764,234.518845 310.491272,239.240143 
	C309.805389,240.138550 306.870789,239.320190 304.715515,239.016022 
M313.746277,254.809036 
	C309.341644,258.303741 308.514862,264.237244 312.044769,267.020111 
	C315.655975,269.867065 325.267273,269.922882 329.547302,266.654083 
	C333.743103,263.449554 334.784607,258.934601 333.679535,254.311691 
	C327.019379,254.311691 320.724030,254.311691 313.746277,254.809036 
z"/>
<path fill="#03AFBC" opacity="1.000000" stroke="none" 
	d="
M137.597931,239.940186 
	C143.323181,222.925476 165.454895,223.515045 173.363602,231.050919 
	C178.839066,236.268311 179.759521,243.206512 178.647110,250.347916 
	C178.214584,253.124649 176.023621,254.115784 173.068192,254.062393 
	C163.946640,253.897568 154.820221,254.002243 145.772446,254.002243 
	C144.607925,262.147064 149.522934,268.782837 157.371033,268.770325 
	C161.920624,268.763092 166.668228,267.196503 170.946793,265.417755 
	C173.999481,264.148621 175.995407,264.898041 177.125519,267.138123 
	C177.634720,268.147461 176.425110,270.814758 175.228882,271.767090 
	C166.487732,278.726105 153.268768,279.098358 144.215714,272.476959 
	C138.301926,268.151642 136.320847,261.528717 136.140244,254.578354 
	C136.016769,249.826874 136.937042,245.048248 137.597931,239.940186 
M153.592896,246.996033 
	C159.291229,246.996033 164.989563,246.996033 170.798920,246.996033 
	C169.230286,237.070374 165.076218,232.480530 158.192520,233.229767 
	C151.106567,234.001022 145.634048,238.057892 145.391464,246.996017 
	C147.810410,246.996017 150.221329,246.996017 153.592896,246.996033 
z"/>
<path fill="#02AEBB" opacity="1.000000" stroke="none" 
	d="
M291.260498,273.343109 
	C279.328766,280.243164 266.582886,277.403259 260.161499,268.803589 
	C258.386658,266.426636 256.925598,263.191589 256.835266,260.302856 
	C256.605225,252.948746 255.804947,245.144211 257.839935,238.294464 
	C261.104523,227.305954 272.466522,224.556046 282.736694,226.602402 
	C286.810822,227.414215 290.593170,230.434418 294.071259,233.033981 
	C295.097076,233.800705 295.460632,237.164810 294.657776,238.287247 
	C293.266907,240.231781 290.805908,240.710220 288.794098,238.252243 
	C285.168823,233.823029 280.395538,233.136566 275.020386,233.902466 
	C270.194946,234.590027 267.282318,237.026169 265.918610,241.718155 
	C264.180695,247.697723 264.021271,253.720428 265.400879,259.692444 
	C267.217896,267.557922 274.195435,271.036530 282.813629,268.551270 
	C284.836945,267.967834 286.841980,267.018524 288.584290,265.837494 
	C290.918945,264.254974 293.197601,263.505066 295.149597,265.900330 
	C297.354584,268.606049 295.147400,270.445496 293.275635,272.144135 
	C292.799957,272.575836 292.148590,272.813904 291.260498,273.343109 
z"/>
<path fill="#03AFBC" opacity="1.000000" stroke="none" 
	d="
M371.601807,234.077377 
	C368.696472,234.677551 366.142883,235.102142 363.105988,235.607117 
	C363.105988,244.749435 362.956787,253.854218 363.192352,262.949066 
	C363.267914,265.866028 364.665405,268.127106 368.387634,268.383759 
	C371.188416,268.576843 373.869690,270.519714 372.667145,273.651672 
	C371.671173,276.245819 369.170624,277.568115 365.738068,276.444611 
	C358.622284,274.115601 355.103210,269.721893 355.020508,261.796234 
	C354.930420,253.167725 355.000061,244.537552 355.000061,237.284973 
	C352.084229,234.708771 350.082672,232.940369 348.081116,231.171951 
	C350.012909,229.304733 351.944733,227.437515 353.876526,225.570312 
	C354.265930,225.800766 354.655365,226.031235 355.044769,226.261688 
	C355.044769,223.459106 354.543640,220.528229 355.216980,217.898041 
	C355.683502,216.075974 357.768982,214.668396 359.131073,213.075607 
	C360.416840,214.717468 362.444275,216.206711 362.820618,218.035706 
	C363.439423,221.043106 362.988342,224.270645 362.988342,226.004242 
	C366.923737,227.495468 369.973541,228.523392 372.835785,229.932327 
	C373.123352,230.073883 372.274841,232.523407 371.601807,234.077377 
z"/>
<path fill="#03AFBC" opacity="1.000000" stroke="none" 
	d="
M446.092957,227.887405 
	C448.531525,227.225021 450.678680,226.003555 452.620728,226.271088 
	C454.199829,226.488632 456.248993,228.230637 456.806427,229.763351 
	C457.630127,232.028152 456.462433,233.895386 453.506470,234.006058 
	C444.169159,234.355728 440.340179,240.030838 440.045197,249.622467 
	C439.830139,256.614349 439.902100,263.620056 440.041565,270.615662 
	C440.105377,273.816956 439.439178,276.709717 435.852051,276.583191 
	C432.763123,276.474243 431.907318,273.854279 431.941345,270.758759 
	C432.080566,258.096405 431.891083,245.429749 432.114105,232.769791 
	C432.147766,230.858643 433.352325,227.796600 434.682281,227.376022 
	C436.349304,226.848862 438.704895,228.499268 440.416382,230.329651 
	C442.181885,229.543747 443.947418,228.757828 446.092957,227.887405 
z"/>
<path fill="#02AEBC" opacity="1.000000" stroke="none" 
	d="
M241.523346,276.177643 
	C240.460617,274.489227 239.143036,272.985565 239.124222,271.465820 
	C238.959732,258.185028 238.923691,244.899490 239.166687,231.621140 
	C239.194839,230.081711 240.842209,227.798767 242.283096,227.223389 
	C245.061005,226.114090 246.965012,227.962280 247.735001,230.717667 
	C247.997070,231.655472 247.988525,232.687561 247.989807,233.676727 
	C248.005157,245.631241 248.053802,257.586182 247.967590,269.540100 
	C247.939423,273.446289 246.911270,276.779236 241.523346,276.177643 
z"/>
<path fill="#FFFFFF" opacity="1.000000" stroke="none" 
	d="
M104.045044,202.194794 
	C107.802513,209.438705 106.119514,215.683380 99.480377,219.823227 
	C95.386871,222.375732 86.336838,220.568253 83.306061,216.592896 
	C78.681038,210.526367 81.350853,201.245499 88.730003,197.738144 
	C94.752708,194.875534 98.941399,195.994934 104.045044,202.194794 
M95.381058,210.000000 
	C92.128593,210.000000 88.876137,210.000000 85.494232,210.000000 
	C86.553139,215.045944 89.190735,217.402512 94.152374,217.029968 
	C98.444504,216.707733 100.964615,214.621780 101.972946,210.000000 
	C99.884880,210.000000 98.094849,210.000000 95.381058,210.000000 
M88.184578,206.999756 
	C92.722618,206.999756 97.260666,206.999756 101.950874,206.999756 
	C101.125290,201.988220 97.543335,200.257874 94.213860,200.288651 
	C91.576004,200.313049 88.932983,202.793472 86.401833,204.360321 
	C86.238358,204.461517 87.016304,206.083527 88.184578,206.999756 
z"/>
<path fill="#FFFFFF" opacity="1.000000" stroke="none" 
	d="
M173.474533,196.352997 
	C174.246063,198.677567 174.126511,200.175507 171.306198,200.040421 
	C167.648590,199.865219 163.974411,200.069687 160.310699,199.977631 
	C157.487411,199.906693 155.065674,200.658417 155.143768,203.831085 
	C155.213806,206.676224 157.439941,207.121536 160.072205,207.086655 
	C163.145996,207.045929 166.229507,207.651474 169.306915,207.993591 
	C173.698822,208.481857 174.526443,211.348770 173.990387,215.086914 
	C173.447098,218.875366 171.308533,220.958115 167.418503,220.987762 
	C162.103836,221.028275 156.788635,220.997864 151.473648,220.997864 
	C151.198593,220.530991 150.923538,220.064133 150.648483,219.597260 
	C152.002533,218.732132 153.299942,217.251587 154.721573,217.120758 
	C158.522125,216.770981 162.380981,216.881805 166.206833,217.043198 
	C168.604385,217.144348 171.002396,216.686630 170.676743,214.087723 
	C170.488678,212.586823 168.243973,210.682495 166.564362,210.190369 
	C164.260361,209.515335 161.590271,209.783920 159.120102,210.049133 
	C154.708191,210.522781 152.110596,209.171600 151.974380,204.332520 
	C151.847916,199.839035 154.618683,196.266861 159.100998,196.058304 
	C163.754395,195.841812 168.428040,196.060760 173.474533,196.352997 
z"/>
<path fill="#FFFFFF" opacity="1.000000" stroke="none" 
	d="
M119.960686,200.855591 
	C118.753815,199.399475 117.624580,198.314056 116.495354,197.228638 
	C123.970634,195.878098 124.188988,203.383438 128.464417,205.620987 
	C131.673950,202.442062 134.890991,199.225555 138.170883,196.074448 
	C138.391159,195.862823 139.086456,196.145615 140.968933,196.355255 
	C137.508209,200.763916 134.523254,204.566483 131.401382,208.543503 
	C134.202713,212.277878 137.160599,216.220932 140.178543,220.244080 
	C135.931122,222.753204 135.413605,218.488693 133.676224,217.007858 
	C131.735397,215.353577 130.361740,213.033905 129.070984,211.416916 
	C124.435570,213.964417 123.940239,220.835373 116.650780,220.078232 
	C119.660103,216.494064 122.669434,212.909897 126.090782,208.834991 
	C124.223793,206.487961 122.131065,203.857117 119.960686,200.855591 
z"/>
<path fill="#FFFFFF" opacity="1.000000" stroke="none" 
	d="
M70.124969,220.337036 
	C62.463665,221.428864 57.023376,216.772964 57.003983,209.609879 
	C56.985607,202.823898 57.000034,196.037811 57.000034,188.492722 
	C61.619923,190.274124 59.472744,193.355270 59.605640,196.001251 
	C62.823074,196.001251 66.112595,196.001251 69.362610,196.001251 
	C69.845360,199.904404 69.845787,199.927490 66.387299,199.991623 
	C64.082336,200.034378 61.775940,199.999741 60.000076,199.999741 
	C60.000076,202.962250 59.977810,205.551392 60.004665,208.140030 
	C60.062317,213.697769 62.174599,215.962708 67.641632,217.114746 
	C68.719002,217.341782 69.489067,219.027145 70.124969,220.337036 
z"/>
<path fill="#FFFFFF" opacity="1.000000" stroke="none" 
	d="
M358.421387,296.949738 
	C356.288513,290.156372 355.535004,284.773224 367.998230,286.212769 
	C367.998230,288.852722 368.343628,291.650482 367.872040,294.303009 
	C367.576904,295.962982 366.237457,298.492310 365.036499,298.697266 
	C363.069031,299.033020 360.832794,297.794067 358.421387,296.949738 
z"/>
<path fill="#FFFFFF" opacity="1.000000" stroke="none" 
	d="
M233.999954,292.768799 
	C234.445511,297.923523 231.947495,299.390991 227.700272,299.004517 
	C222.244904,298.508148 222.844925,293.874054 223.216034,290.876404 
	C223.953400,284.920288 229.032974,285.942688 234.000000,286.111084 
	C234.000000,288.182892 234.000000,290.248993 233.999954,292.768799 
z"/>
<path fill="#FFFFFF" opacity="1.000000" stroke="none" 
	d="
M284.174683,285.416260 
	C286.400726,284.086517 288.732208,283.124908 291.591156,281.945770 
	C292.421875,287.306030 293.066345,291.464508 293.714813,295.648621 
	C291.779846,295.772858 289.956818,296.353607 288.474823,295.876068 
	C286.269745,295.165436 283.909180,294.057922 282.435455,292.392914 
	C281.851898,291.733612 283.492371,289.136383 284.065613,287.403473 
	C284.233612,286.895691 284.213867,286.325836 284.174683,285.416260 
z"/>
<path fill="#FFFFFF" opacity="1.000000" stroke="none" 
	d="
M191.979691,294.377716 
	C189.536026,295.164001 186.935593,296.205597 184.733124,295.655090 
	C182.918945,295.201630 180.049393,292.396942 180.336731,291.451813 
	C180.971863,289.362671 183.110718,287.545868 184.992477,286.073303 
	C186.821152,284.642273 189.094635,283.779633 191.995102,282.227295 
	C191.995102,286.750275 191.995102,290.347229 191.979691,294.377716 
z"/>
<path fill="#FFFFFF" opacity="1.000000" stroke="none" 
	d="
M351.911102,295.947815 
	C349.088654,295.663574 346.447235,295.808105 344.276886,294.866608 
	C342.838989,294.242889 340.905518,291.626678 341.260986,290.672729 
	C341.946838,288.832092 343.851532,286.887451 345.704224,286.189728 
	C347.738098,285.423859 350.283142,286.015289 352.292328,286.015289 
	C352.292328,289.480591 352.292328,292.697784 351.911102,295.947815 
z"/>
<path fill="#FFFFFF" opacity="1.000000" stroke="none" 
	d="
M429.991455,288.166412 
	C429.997833,290.934845 429.997833,293.250641 429.997833,295.551819 
	C425.749481,295.812531 421.087616,297.395874 419.220917,292.036377 
	C418.762421,290.720001 419.839020,287.831146 421.032593,287.184998 
	C423.847626,285.661072 427.206055,284.436157 429.991455,288.166412 
z"/>
<path fill="#FFFFFF" opacity="1.000000" stroke="none" 
	d="
M332.019745,290.578674 
	C332.002441,291.825104 332.195068,292.719055 331.947815,293.467743 
	C331.651703,294.364441 330.980011,295.137115 330.471008,295.963501 
	C329.981293,295.118317 329.268311,294.324280 329.059784,293.414642 
	C328.813110,292.338562 329.001831,291.162659 328.573944,289.988739 
	C328.044067,292.079803 327.514221,294.170837 326.984344,296.261902 
	C326.408539,296.092926 325.832733,295.923981 325.256927,295.755005 
	C325.457123,292.244507 322.831482,287.592621 328.576782,286.147461 
	C331.883362,285.315674 335.909210,285.503784 336.817688,289.983490 
	C337.281677,292.271393 338.353088,296.002808 333.005493,295.910400 
	C333.131470,293.880920 333.249939,291.971893 333.368439,290.062866 
	C332.923920,290.095886 332.479401,290.128876 332.019745,290.578674 
z"/>
<path fill="#FFFFFF" opacity="1.000000" stroke="none" 
	d="
M135.192078,295.358734 
	C131.231110,296.729065 128.403351,295.158752 127.879898,291.770935 
	C127.146400,287.023621 129.527313,285.815277 137.999985,286.157623 
	C137.999985,287.706879 137.999985,289.292450 137.999985,290.878021 
	C137.999985,292.372986 137.999985,293.867920 137.999985,295.425659 
	C137.057312,295.304535 136.274246,295.203918 135.192078,295.358734 
z"/>
<path fill="#FFFFFF" opacity="1.000000" stroke="none" 
	d="
M244.897720,286.004852 
	C248.741913,286.608704 250.813904,288.895294 249.717514,292.035767 
	C249.109253,293.777985 246.010834,295.894958 244.306656,295.680695 
	C242.380783,295.438599 239.772369,293.053223 239.214630,291.099274 
	C238.102707,287.203735 241.391434,286.370361 244.897720,286.004852 
z"/>
<path fill="#FFFFFF" opacity="1.000000" stroke="none" 
	d="
M390.821381,286.666321 
	C390.613220,287.836334 390.274933,288.627716 390.120728,288.988464 
	C390.704529,290.543182 391.264709,292.034973 391.824890,293.526794 
	C388.487335,294.680023 385.149780,295.833252 381.812225,296.986511 
	C381.512970,296.156067 381.213715,295.325623 380.914490,294.495178 
	C382.976990,293.784973 385.039520,293.074738 387.198273,292.331360 
	C386.534119,292.225586 385.655273,292.334930 385.132599,291.954681 
	C383.685699,290.902100 382.387329,289.645294 381.030243,288.469238 
	C382.434967,287.647369 383.755859,286.426392 385.266541,286.109039 
	C386.986389,285.747742 388.875641,286.192993 390.821381,286.666321 
z"/>
<path fill="#FFFFFF" opacity="1.000000" stroke="none" 
	d="
M121.974960,292.535645 
	C120.392685,296.970978 116.169426,297.051727 114.134804,295.635529 
	C111.884438,294.069153 111.273392,290.147644 109.948410,287.251801 
	C110.559563,286.713470 111.170723,286.175140 111.781876,285.636780 
	C112.853821,286.402069 113.966049,287.118011 114.984146,287.949219 
	C115.716797,288.547363 116.323944,289.299255 116.987061,289.982574 
	C117.658455,289.309021 118.356018,288.659210 118.993973,287.955383 
	C119.649773,287.231903 120.247375,286.455719 120.870430,285.702576 
	C121.244926,285.883179 121.619415,286.063782 121.993912,286.244385 
	C121.993912,288.197266 121.993912,290.150177 121.974960,292.535645 
z"/>
<path fill="#FFFFFF" opacity="1.000000" stroke="none" 
	d="
M308.737793,289.389893 
	C308.470062,294.186432 305.691254,297.084686 302.697052,295.739685 
	C300.846741,294.908539 298.758087,293.052246 298.277039,291.254608 
	C297.934509,289.974670 299.720184,287.279114 301.213287,286.536224 
	C304.028961,285.135315 306.911652,285.818634 308.737793,289.389893 
z"/>
<path fill="#FFFFFF" opacity="1.000000" stroke="none" 
	d="
M164.967712,291.775421 
	C162.970367,295.062256 160.576202,297.618408 156.950623,295.198669 
	C155.477875,294.215729 153.871216,291.370941 154.325317,290.072906 
	C154.925629,288.356842 157.342316,286.526886 159.241913,286.176910 
	C162.767548,285.527405 164.456100,288.093903 164.967712,291.775421 
z"/>
<path fill="#FFFFFF" opacity="1.000000" stroke="none" 
	d="
M202.027664,295.989685 
	C198.609863,295.048187 196.009308,293.510986 197.135849,289.890900 
	C197.609772,288.367950 199.306839,286.596466 200.804138,286.159943 
	C203.435349,285.392792 206.222397,286.004059 206.932922,289.362793 
	C207.699524,292.986694 206.346344,295.415985 202.027664,295.989685 
z"/>
<path fill="#02ADBA" opacity="1.000000" stroke="none" 
	d="
M240.349274,217.629639 
	C237.551544,215.197479 237.044312,212.748520 239.392593,210.172012 
	C241.473099,207.889313 244.398270,207.660172 246.307861,209.590759 
	C247.541611,210.838104 248.072556,213.992325 247.381485,215.652023 
	C246.305267,218.236710 243.886047,220.157410 240.349274,217.629639 
z"/>
<path fill="#FFFFFF" opacity="1.000000" stroke="none" 
	d="
M79.652306,294.835754 
	C75.636940,297.239319 72.825584,295.964630 71.853363,292.177643 
	C71.448647,290.601166 72.657867,287.829498 74.034386,286.742035 
	C76.748146,284.598145 79.700829,286.087982 80.950500,288.759460 
	C81.634270,290.221161 80.345566,292.605530 79.652306,294.835754 
z"/>
<path fill="#FFFFFF" opacity="1.000000" stroke="none" 
	d="
M255.295258,288.364746 
	C258.451630,287.083405 261.389618,286.149048 264.159912,285.268036 
	C264.516876,288.477295 265.058990,290.622742 264.862274,292.698151 
	C264.759277,293.784729 263.510193,295.399261 262.513397,295.630310 
	C260.518158,296.092743 258.340363,295.767548 256.237946,295.767548 
	C256.076111,295.227020 255.914307,294.686493 255.752502,294.145966 
	C257.556671,293.585175 259.360870,293.024414 259.994873,292.827332 
	C258.722809,291.762817 256.899841,290.237305 255.295258,288.364746 
z"/>
<path fill="#FFFFFF" opacity="1.000000" stroke="none" 
	d="
M57.482727,295.665894 
	C58.561951,294.255280 59.990665,293.093719 60.961601,292.304352 
	C58.475605,292.065094 55.514294,290.988495 57.506630,286.197937 
	C60.188194,286.197937 62.925217,286.197937 65.493645,286.197937 
	C65.493645,288.925964 66.480530,292.307343 65.235283,293.717163 
	C63.790318,295.353088 60.386028,295.258423 57.482727,295.665894 
z"/>
<path fill="#FFFFFF" opacity="1.000000" stroke="none" 
	d="
M276.951721,294.225433 
	C275.526642,294.814087 273.352631,295.676086 272.777130,295.055573 
	C271.396759,293.567230 270.484161,291.461365 269.924713,289.453705 
	C269.479248,287.855011 269.834869,286.033112 269.834869,283.752655 
	C273.652557,279.906830 273.972656,287.172882 277.306458,286.650848 
	C274.255341,289.188171 272.356964,291.535858 276.951721,294.225433 
z"/>
<path fill="#FFFFFF" opacity="1.000000" stroke="none" 
	d="
M99.000702,286.178772 
	C99.266304,284.866089 99.531380,283.997345 99.796448,283.128601 
	C100.524254,283.527679 101.283440,283.879364 101.972878,284.336334 
	C103.166397,285.127350 104.316681,285.983612 106.068718,287.226532 
	C104.962257,287.996063 103.669853,288.894928 101.790771,290.201813 
	C103.164139,291.804138 104.655609,293.544250 106.873276,296.131622 
	C99.498100,294.703491 99.002419,293.991058 99.000702,286.178772 
z"/>
<path fill="#FFFFFF" opacity="1.000000" stroke="none" 
	d="
M88.001381,295.907990 
	C85.895279,286.857513 86.861916,284.615814 94.612274,281.806824 
	C93.417320,285.070831 92.511230,287.545776 91.605148,290.020721 
	C91.311050,289.920105 91.016953,289.819519 90.722862,289.718903 
	C89.963326,291.800232 89.203789,293.881531 88.001381,295.907990 
z"/>
<path fill="#FFFFFF" opacity="1.000000" stroke="none" 
	d="
M373.000000,290.914673 
	C373.000000,288.154144 373.000000,285.861694 373.000000,283.218964 
	C374.285645,283.147186 375.348419,283.087860 376.415314,283.028290 
	C376.971039,295.667145 376.971039,295.667145 373.211609,295.703461 
	C373.141510,294.271973 373.070770,292.827362 373.000000,290.914673 
z"/>
<path fill="#FFFFFF" opacity="1.000000" stroke="none" 
	d="
M399.432434,285.632782 
	C400.822388,286.368927 401.888550,286.831329 402.954712,287.293762 
	C401.821136,288.144684 400.687592,288.995636 399.030090,290.239899 
	C399.800537,290.957520 401.007935,291.897064 401.962646,293.046478 
	C402.468262,293.655243 402.534698,294.628754 402.799438,295.437592 
	C401.896759,295.481659 400.736755,295.911835 400.132050,295.508820 
	C395.242188,292.249573 397.377319,287.541504 398.219482,283.020172 
	C398.515869,283.799774 398.812256,284.579407 399.432434,285.632782 
z"/>
<path fill="#FFFFFF" opacity="1.000000" stroke="none" 
	d="
M146.998779,293.056458 
	C146.150497,294.511993 145.303253,295.527374 144.455994,296.542755 
	C144.054489,296.272125 143.653000,296.001465 143.251495,295.730835 
	C143.251495,292.641693 143.251495,289.552551 143.251495,286.230042 
	C145.126312,286.230042 146.882477,286.230042 148.639618,286.230042 
	C148.077011,288.421143 147.538406,290.518738 146.998779,293.056458 
z"/>
<path fill="#FFFFFF" opacity="1.000000" stroke="none" 
	d="
M435.000854,292.755005 
	C435.003937,289.810638 434.895203,287.321960 435.088531,284.856995 
	C435.138397,284.221039 436.137085,283.659515 436.699951,283.063782 
	C437.127136,283.628296 437.898315,284.177795 437.923676,284.759796 
	C438.052917,287.730072 438.071869,290.712433 437.936981,293.681824 
	C437.902222,294.446808 437.171387,295.180206 436.760315,295.928131 
	C436.174072,295.025269 435.587799,294.122406 435.000854,292.755005 
z"/>
<path fill="#FFFFFF" opacity="1.000000" stroke="none" 
	d="
M410.857788,295.922211 
	C409.742126,292.891052 409.070160,289.819580 408.301880,286.308014 
	C410.753235,286.308014 412.263275,286.308014 413.482330,286.308014 
	C412.743530,289.551208 412.022491,292.716522 410.857788,295.922211 
z"/>
<path fill="#47704C" opacity="1.000000" stroke="none" 
	d="
M196.128510,238.273468 
	C198.962448,233.343460 206.701385,232.444717 211.420609,234.313797 
	C216.690765,236.401108 219.087479,240.183029 218.959183,246.369873 
	C218.860016,251.151413 218.418411,255.925018 218.181427,260.704773 
	C217.972717,264.913940 215.839142,267.079254 211.727005,268.248260 
	C202.216064,270.951996 196.405792,268.087189 193.860367,258.733704 
	C191.970016,251.787277 192.666367,245.035690 196.128510,238.273468 
z"/>
<path fill="#47704C" opacity="1.000000" stroke="none" 
	d="
M409.796021,257.426331 
	C408.523560,258.779053 407.565613,260.355835 406.296234,260.668579 
	C402.752808,261.541534 402.625458,263.198792 404.980103,265.885986 
	C401.840515,265.885986 399.200592,265.885986 396.560669,265.885986 
	C396.914520,265.524567 397.268341,265.163147 397.622192,264.801697 
	C396.661743,263.469574 395.987061,261.654022 394.691772,260.888306 
	C388.826233,257.420654 388.712585,248.982239 394.909851,243.356873 
	C394.228058,242.281876 393.514740,241.157181 392.601074,239.716568 
	C395.276825,239.076462 397.954498,235.128357 399.748901,240.709961 
	C399.921997,241.248276 401.113495,241.606720 401.892059,241.780151 
	C409.997223,243.585770 412.869507,248.990555 409.796021,257.426331 
z"/>
<path fill="#47704C" opacity="1.000000" stroke="none" 
	d="
M412.196899,237.722931 
	C413.968811,240.273895 415.391052,242.626877 417.028412,244.819168 
	C417.837799,245.902893 419.043793,246.690399 420.003448,247.551895 
	C419.202942,248.259552 417.877777,249.431046 415.566193,251.474548 
	C413.189270,244.047058 408.069519,238.853134 399.409058,235.909500 
	C405.461487,232.577805 408.661438,235.212677 412.196899,237.722931 
z"/>
<path fill="#47704C" opacity="1.000000" stroke="none" 
	d="
M314.087463,254.560364 
	C320.724030,254.311691 327.019379,254.311691 333.679535,254.311691 
	C334.784607,258.934601 333.743103,263.449554 329.547302,266.654083 
	C325.267273,269.922882 315.655975,269.867065 312.044769,267.020111 
	C308.514862,264.237244 309.341644,258.303741 314.087463,254.560364 
z"/>
<path fill="#47704C" opacity="1.000000" stroke="none" 
	d="
M153.112564,246.996033 
	C150.221329,246.996017 147.810410,246.996017 145.391464,246.996017 
	C145.634048,238.057892 151.106567,234.001022 158.192520,233.229767 
	C165.076218,232.480530 169.230286,237.070374 170.798920,246.996033 
	C164.989563,246.996033 159.291229,246.996033 153.112564,246.996033 
z"/>
<path fill="#47704C" opacity="1.000000" stroke="none" 
	d="
M95.842934,210.000000 
	C98.094849,210.000000 99.884880,210.000000 101.972946,210.000000 
	C100.964615,214.621780 98.444504,216.707733 94.152374,217.029968 
	C89.190735,217.402512 86.553139,215.045944 85.494232,210.000000 
	C88.876137,210.000000 92.128593,210.000000 95.842934,210.000000 
z"/>
<path fill="#47704C" opacity="1.000000" stroke="none" 
	d="
M87.770447,206.998917 
	C87.016304,206.083527 86.238358,204.461517 86.401833,204.360321 
	C88.932983,202.793472 91.576004,200.313049 94.213860,200.288651 
	C97.543335,200.257874 101.125290,201.988220 101.950874,206.999756 
	C97.260666,206.999756 92.722618,206.999756 87.770447,206.998917 
z"/>
</svg>